<svg width="116" height="43" viewBox="0 0 116 43" fill="none" xmlns="http://www.w3.org/2000/svg">
<path d="M20.624 17.656C21.368 16.696 22.28 15.952 23.36 15.424C24.44 14.896 25.556 14.632 26.708 14.632C30.26 14.632 32.036 16.504 32.036 20.248V34H29.012V20.284C29.012 19.156 28.748 18.34 28.22 17.836C27.692 17.308 26.852 17.044 25.7 17.044C24.716 17.044 23.768 17.356 22.856 17.98C21.944 18.604 21.2 19.336 20.624 20.176V34H17.6V7.432L20.624 7.108V17.656ZM41.5979 25.576C41.6699 27.664 42.2099 29.236 43.2179 30.292C44.2499 31.348 45.5459 31.876 47.1059 31.876C48.0419 31.876 48.8939 31.744 49.6619 31.48C50.4539 31.192 51.2939 30.76 52.1819 30.184L53.5859 32.2C52.6979 32.896 51.6779 33.436 50.5259 33.82C49.3979 34.204 48.2579 34.396 47.1059 34.396C44.3699 34.396 42.2339 33.508 40.6979 31.732C39.1859 29.932 38.4299 27.532 38.4299 24.532C38.4299 22.636 38.7659 20.944 39.4379 19.456C40.1099 17.944 41.0699 16.768 42.3179 15.928C43.5659 15.064 45.0179 14.632 46.6739 14.632C49.0739 14.632 50.9579 15.472 52.3259 17.152C53.7179 18.808 54.4139 21.076 54.4139 23.956C54.4139 24.508 54.3899 25.048 54.3419 25.576H41.5979ZM46.7099 17.116C45.2459 17.116 44.0579 17.644 43.1459 18.7C42.2339 19.732 41.7179 21.256 41.5979 23.272H51.4619C51.4379 21.28 51.0059 19.756 50.1659 18.7C49.3259 17.644 48.1739 17.116 46.7099 17.116ZM68.1879 29.32C68.1879 31.024 69.2319 31.876 71.3199 31.876C72.3039 31.876 73.3599 31.66 74.4879 31.228L75.2799 33.424C74.0799 34.072 72.5799 34.396 70.7799 34.396C69.0759 34.396 67.7079 33.928 66.6759 32.992C65.6679 32.056 65.1639 30.784 65.1639 29.176V9.808H59.3319V7.396H68.1879V29.32ZM96.7578 7.396V34H94.0938L93.8058 31.516C93.1098 32.476 92.3058 33.196 91.3938 33.676C90.4818 34.156 89.4978 34.396 88.4418 34.396C86.0418 34.396 84.2298 33.52 83.0058 31.768C81.8058 30.016 81.2058 27.604 81.2058 24.532C81.2058 22.636 81.5058 20.944 82.1058 19.456C82.7058 17.944 83.5578 16.768 84.6618 15.928C85.7898 15.064 87.1098 14.632 88.6218 14.632C90.7098 14.632 92.4138 15.388 93.7338 16.9V7.036L96.7578 7.396ZM89.4138 17.08C87.8298 17.08 86.6058 17.704 85.7418 18.952C84.9018 20.2 84.4818 22.06 84.4818 24.532C84.4818 26.98 84.8658 28.84 85.6338 30.112C86.4258 31.36 87.5658 31.984 89.0538 31.984C90.8538 31.984 92.4138 30.976 93.7338 28.96V19.528C93.2058 18.736 92.5698 18.136 91.8258 17.728C91.0818 17.296 90.2778 17.08 89.4138 17.08Z" fill="white"/>
<path d="M113 23H116V39H113V23Z" fill="white"/>
<path d="M107 39V36H116V39H107Z" fill="white"/>
<path d="M3 21H0L0 5H3L3 21Z" fill="white"/>
<path d="M9 5V8L0 8V5L9 5Z" fill="white"/>
</svg>
