<svg width="137" height="43" viewBox="0 0 137 43" fill="none" xmlns="http://www.w3.org/2000/svg">
<path d="M23.864 14.632C26.072 14.632 27.836 15.46 29.156 17.116L29.408 15.028H32V41.632L28.976 41.272V31.624C27.632 33.472 25.844 34.396 23.612 34.396C18.956 34.396 16.628 31.108 16.628 24.532C16.628 21.604 17.264 19.228 18.536 17.404C19.808 15.556 21.584 14.632 23.864 14.632ZM24.62 17.08C21.476 17.08 19.904 19.564 19.904 24.532C19.904 27.004 20.264 28.852 20.984 30.076C21.704 31.276 22.796 31.876 24.26 31.876C25.244 31.876 26.132 31.612 26.924 31.084C27.716 30.532 28.4 29.824 28.976 28.96V19.528C28.472 18.76 27.836 18.16 27.068 17.728C26.324 17.296 25.508 17.08 24.62 17.08ZM42.2099 28.492C42.2099 29.716 42.4619 30.616 42.9659 31.192C43.4939 31.744 44.3099 32.02 45.4139 32.02C46.4219 32.02 47.3939 31.732 48.3299 31.156C49.2659 30.58 50.0099 29.86 50.5619 28.996V15.028H53.5859V34H50.9939L50.7419 31.444C49.9979 32.38 49.0739 33.112 47.9699 33.64C46.8899 34.144 45.7859 34.396 44.6579 34.396C42.8579 34.396 41.4899 33.916 40.5539 32.956C39.6419 31.996 39.1859 30.616 39.1859 28.816V15.028H42.2099V28.492ZM63.1839 25.576C63.2559 27.664 63.7959 29.236 64.8039 30.292C65.8359 31.348 67.1319 31.876 68.6919 31.876C69.6279 31.876 70.4799 31.744 71.2479 31.48C72.0399 31.192 72.8799 30.76 73.7679 30.184L75.1719 32.2C74.2839 32.896 73.2639 33.436 72.1119 33.82C70.9839 34.204 69.8439 34.396 68.6919 34.396C65.9559 34.396 63.8199 33.508 62.2839 31.732C60.7719 29.932 60.0159 27.532 60.0159 24.532C60.0159 22.636 60.3519 20.944 61.0239 19.456C61.6959 17.944 62.6559 16.768 63.9039 15.928C65.1519 15.064 66.6039 14.632 68.2599 14.632C70.6599 14.632 72.5439 15.472 73.9119 17.152C75.3039 18.808 75.9999 21.076 75.9999 23.956C75.9999 24.508 75.9759 25.048 75.9279 25.576H63.1839ZM68.2959 17.116C66.8319 17.116 65.6439 17.644 64.7319 18.7C63.8199 19.732 63.3039 21.256 63.1839 23.272H73.0479C73.0239 21.28 72.5919 19.756 71.7519 18.7C70.9119 17.644 69.7599 17.116 68.2959 17.116ZM85.3818 28.492C85.3818 29.716 85.6338 30.616 86.1378 31.192C86.6658 31.744 87.4818 32.02 88.5858 32.02C89.5938 32.02 90.5658 31.732 91.5018 31.156C92.4378 30.58 93.1818 29.86 93.7338 28.996V15.028H96.7578V34H94.1658L93.9138 31.444C93.1698 32.38 92.2458 33.112 91.1418 33.64C90.0618 34.144 88.9578 34.396 87.8298 34.396C86.0298 34.396 84.6618 33.916 83.7258 32.956C82.8138 31.996 82.3578 30.616 82.3578 28.816V15.028H85.3818V28.492ZM106.356 25.576C106.428 27.664 106.968 29.236 107.976 30.292C109.008 31.348 110.304 31.876 111.864 31.876C112.8 31.876 113.652 31.744 114.42 31.48C115.212 31.192 116.052 30.76 116.94 30.184L118.344 32.2C117.456 32.896 116.436 33.436 115.284 33.82C114.156 34.204 113.016 34.396 111.864 34.396C109.128 34.396 106.992 33.508 105.456 31.732C103.944 29.932 103.188 27.532 103.188 24.532C103.188 22.636 103.524 20.944 104.196 19.456C104.868 17.944 105.828 16.768 107.076 15.928C108.324 15.064 109.776 14.632 111.432 14.632C113.832 14.632 115.716 15.472 117.084 17.152C118.476 18.808 119.172 21.076 119.172 23.956C119.172 24.508 119.148 25.048 119.1 25.576H106.356ZM111.468 17.116C110.004 17.116 108.816 17.644 107.904 18.7C106.992 19.732 106.476 21.256 106.356 23.272H116.22C116.196 21.28 115.764 19.756 114.924 18.7C114.084 17.644 112.932 17.116 111.468 17.116Z" fill="white"/>
<path d="M134 22H137V38H134V22Z" fill="white"/>
<path d="M128 38V35H137V38H128Z" fill="white"/>
<path d="M3 21H0L0 5H3L3 21Z" fill="white"/>
<path d="M9 5V8L0 8V5L9 5Z" fill="white"/>
</svg>
